<?xml version="1.0" standalone="no"?>
<!DOCTYPE svg PUBLIC "-//W3C//DTD SVG 1.1//EN" "http://www.w3.org/Graphics/SVG/1.1/DTD/svg11.dtd" >
<!--
2013-9-30: Created.
-->
<svg>
<metadata>
Created by iconfont
</metadata>
<defs>

<font id="iconfont" horiz-adv-x="1024" >
  <font-face
    font-family="iconfont"
    font-weight="500"
    font-stretch="normal"
    units-per-em="1024"
    ascent="896"
    descent="-128"
  />
    <missing-glyph />
    
    <glyph glyph-name="fanhuidingbu" unicode="&#58938;" d="M752.736 464.937C757.159 755.425 520.41 887.03 504.518 895.59V896l-0.45-0.205-0.41 0.205v-0.41c-15.934-8.56-252.723-140.165-248.259-430.653-48.21-31.457-98.713-87.368-90.685-184.074 8.028-96.666 101.007-160.768 136.601-157.287 35.595 3.482 25.232 30.31 25.232 30.31l12.206 50.095s52.47-80.569 69.304-80.528c15.114 1.23 87 0.123 95.6 0h0.82c8.602 0.123 80.486 1.23 95.6 0 16.794 0 69.305 80.528 69.305 80.528l12.165-50.094s-10.322-26.83 25.272-30.31c35.595-3.482 128.574 60.62 136.602 157.286 8.028 96.665-42.475 152.617-90.685 184.074z m-248.669 4.26c-6.758 0.123-94.781 3.359-102.891 107.192 2.95 98.714 95.97 107.438 102.891 107.93 6.964-0.492 99.943-9.216 102.892-107.93-8.11-103.833-96.174-107.07-102.892-107.192z m-52.019-500.531c0-11.838-9.42-21.382-21.012-21.382a21.217 21.217 0 0 0-21.054 21.34V74.26c0 11.797 9.421 21.382 21.054 21.382 11.591 0 21.012-9.585 21.012-21.382v-105.635z m77.333-57.222a21.504 21.504 0 0 0-21.34-21.626 21.504 21.504 0 0 0-21.34 21.626V68.526c0 11.96 9.543 21.668 21.299 21.668 11.796 0 21.38-9.708 21.38-21.668v-157.082z m71.147 82.043c0-11.796-9.42-21.34-21.053-21.34a21.217 21.217 0 0 0-21.013 21.34v75.367c0 11.755 9.421 21.299 21.013 21.299 11.632 0 21.053-9.544 21.053-21.3v-75.366z"  horiz-adv-x="1024" />

    
    <glyph glyph-name="xiala-_fuzhi-" unicode="&#58936;" d="M509.44 493.056c7.168 0 12.288-2.56 16.896-7.168l206.336-206.336c9.728-9.728 9.728-24.064 0-33.792-9.728-9.728-24.064-9.728-33.792 0l-189.44 189.44-189.44-189.44c-9.728-9.728-24.064-9.728-33.792 0-9.728 9.728-9.728 24.064 0 33.792l206.336 206.336c2.048 5.12 9.728 7.168 16.896 7.168z"  horiz-adv-x="1024" />

    
    <glyph glyph-name="dakai" unicode="&#58937;" d="M791.25550269 389.55372853c0-15.55043993-5.55372853-26.657897-15.55043993-36.65460839l-447.63052074-447.63052072c-21.10416847-21.10416847-52.20504831-21.10416847-73.30921682 0-21.10416847 21.10416847-21.10416847 52.20504831 0 73.3092168l410.97591236 410.97591231-410.97591236 410.97591238c-21.10416847 21.10416847-21.10416847 52.20504831 0 73.30921676 21.10416847 21.10416847 52.20504831 21.10416847 73.30921682 0l447.63052074-447.63052073c11.10745708-4.44298286 15.55043993-21.10416847 15.55043993-36.65460841z"  horiz-adv-x="1024" />

    
    <glyph glyph-name="xiala-" unicode="&#58928;" d="M509.44 238.592c-7.168 0-12.288 2.56-16.896 7.168L286.208 452.096c-9.728 9.728-9.728 24.064 0 33.792s24.064 9.728 33.792 0l189.44-189.44 189.44 189.44c9.728 9.728 24.064 9.728 33.792 0 9.728-9.728 9.728-24.064 0-33.792L526.336 245.76c-2.048-5.12-9.728-7.168-16.896-7.168z"  horiz-adv-x="1024" />

    
    <glyph glyph-name="chakan-" unicode="&#58935;" d="M729.482664-127.989H134.354057a90.540027 90.540027 0 0 0-90.431029 90.430028V805.570971A90.540027 90.540027 0 0 0 134.354057 896h593.90662a90.540027 90.540027 0 0 0 90.431028-90.430029V483.56443a29.329685 29.329685 0 0 0-58.657369 0V805.569971a31.772659 31.772659 0 0 1-31.773659 31.772659H134.354057a31.772659 31.772659 0 0 1-31.772659-31.772659V-37.559972a31.772659 31.772659 0 0 1 31.772659-31.772658h595.128607a29.329685 29.329685 0 0 0 0-58.65737zM601.169042 43.633156A224.853585 224.853585 0 1 0 760.169334 427.485033a224.853585 224.853585 0 0 0-158.998292-383.851877z m0 391.0498a166.196215 166.196215 0 1 1 117.523738-48.673478 165.145226 165.145226 0 0 1-117.522738 48.673478zM713.930831 114.248398l41.476554 41.476554 224.667587-224.667586-41.476555-41.477555-224.667586 224.667587zM155.128834 748.745582H582.839239v-58.65837H155.128834v58.65837zM156.35082 598.435196h256.626244v-58.657369h-256.627244v58.657369z"  horiz-adv-x="1024" />

    
    <glyph glyph-name="wenhao" unicode="&#58934;" d="M893.5 545.1c-20.9 49.3-50.7 93.6-88.7 131.6s-82.3 67.9-131.6 88.7C622.1 787 567.9 798 512 798s-110.1-11-161.1-32.6c-49.3-20.9-93.6-50.7-131.6-88.7s-67.9-82.3-88.7-131.6C109 494.1 98 439.9 98 384s10.9-110.1 32.5-161.2c20.9-49.3 50.7-93.6 88.7-131.6s82.3-67.9 131.6-88.7C401.9-19.1 456.2-30 512-30s110.1 10.9 161.2 32.5c49.3 20.9 93.6 50.7 131.6 88.7s67.9 82.3 88.7 131.6C915.1 273.9 926 328.1 926 384s-10.9 110.1-32.5 161.1zM512 18c-201.8 0-366 164.2-366 366s164.2 366 366 366 366-164.2 366-366-164.1-366-366-366zM512.1 225.6c-17.7 0-33-14.8-33-33.3 0-17.9 15.3-32.7 33-32.7 18.3 0 33 14.8 33 32.7 0 8.8-3.4 17.3-9.6 23.6-6.2 6.3-14.6 9.7-23.4 9.7z m104 345.7c-25.4 23.5-60.1 35.3-103.4 35.3-40.9 0-73.7-10.5-98.4-32.8-24.8-21.7-40.3-53.3-45.2-94.8l56.4-6.8c4.3 31 14.9 53.9 30.4 68.1 15.5 14.9 34.7 21.7 57.6 21.7 24.1 0 44.6-8 61.3-24.2 16.1-15.5 24.2-34.1 24.2-55.7 0-11.2-2.5-22.3-8.1-32.2-5.6-9.9-18-22.9-36.5-39.6-19.2-16.7-32.2-29.1-39.6-37.8-9.3-11.8-16.7-23.5-21.1-35.3-6.2-15.5-9.3-34.1-9.3-55.1l0.6-16.7h52c0.6 21.7 1.9 37.8 4.3 47.1 3.1 9.9 6.8 18.6 12.4 26 5.6 7.4 16.7 19.2 34.7 34.7 26 23.5 44 43.4 53.3 59.4 8.7 16.1 13.6 34.1 13.6 53.3-0.2 33.4-13.2 61.8-39.2 85.4z"  horiz-adv-x="1024" />

    
    <glyph glyph-name="baogao-" unicode="&#58918;" d="M491.3 424.234H284.187V384H491.3v40.234z m-207.113-281.6h455.626v40.234H284.187v-40.235z m593.3 429.566l1.204 7.107L623.07 846.694H222.05c-45.749 0-82.837-36.04-82.837-80.469v-764.45c0-44.468 37.088-80.469 82.837-80.469h579.902c45.749 0 82.837 36.04 82.837 80.469v563.28l-7.301 7.145zM636.276 773.06l181.287-187.85H677.675c-22.874 0-41.4 18.02-41.4 40.234V773.061zM843.35 1.814c0-22.214-18.564-40.234-41.4-40.234h-579.9c-22.875 0-41.439 18.02-41.439 40.234V766.225c0 22.215 18.603 40.235 41.438 40.235h372.789v-181.055c0-44.428 37.088-80.468 82.837-80.468h165.714v-543.124h-0.039zM284.187 263.336h455.626v40.196H284.187v-40.196zM491.3 544.937H284.187v-40.234H491.3v40.234z"  horiz-adv-x="1024" />

    
    <glyph glyph-name="bengdaibaozachuangketiebandage" unicode="&#58919;" d="M386.592 852.64a133.216 133.216 0 0 1-188.32 0L45.504 699.872a133.024 133.024 0 0 1 0.032-188.288L121.92 435.2l341.056 341.056-76.384 76.384z m178.72-860.896l76.384-76.384a133.184 133.184 0 0 1 188.32 0l152.768 152.768a133.12 133.12 0 0 1 0.032 188.32l-76.384 76.384-341.12-341.088zM982.816 511.52a133.184 133.184 0 0 1 0 188.32L830.048 852.64a133.216 133.216 0 0 1-188.32 0L45.504 256.48a133.184 133.184 0 0 1 0-188.32l152.768-152.768a133.184 133.184 0 0 1 188.32 0L982.816 511.52z m-433.12-134.56a30.144 30.144 0 1 0-42.56 42.624 30.144 30.144 0 0 0 42.56-42.624z m-0.416-147.392a30.176 30.176 0 1 0-42.624 42.752 30.176 30.176 0 0 0 42.624-42.752z m3.616 297.472a30.144 30.144 0 1 0-42.624 42.592 30.144 30.144 0 0 0 42.624-42.592z m-76.672-76.608a30.048 30.048 0 0 0-42.592 0 30.016 30.016 0 0 0 0 42.624 30.144 30.144 0 0 0 42.592-42.624z m-116.512-31.264a30.24 30.24 0 0 0 42.624 0 30.176 30.176 0 1 0-42.624 0z m73.504-116.128a30.144 30.144 0 1 0 42.624 42.656 30.144 30.144 0 0 0-42.624-42.656z m266.624 77.056a30.144 30.144 0 1 0-42.624 42.592 30.144 30.144 0 0 0 42.624-42.592zM626.368 453.6a30.08 30.08 0 1 0-42.592 42.624 30.08 30.08 0 0 0 42.592 0 30.08 30.08 0 0 0 0-42.624z m-45.76-107.52a30.08 30.08 0 0 0 42.624 0 30.08 30.08 0 0 0 0-42.592 30.08 30.08 0 0 0-42.624 0 29.984 29.984 0 0 0 0 42.592z"  horiz-adv-x="1024" />

    
    <glyph glyph-name="bianqian" unicode="&#58920;" d="M694.886 780.39l-151.244-31.744L77.517 282.624l340.377-340.275L883.917 408.37l31.744 151.245z m-110.49-338.432a102.4 102.4 0 1 0 144.794 0 102.4 102.4 0 0 0-144.793 0zM417.894-72.192L63.078 282.624l475.444 475.443 159.641 33.485 228.66-228.66-33.485-159.64-2.15-2.151zM92.16 282.624l325.734-325.837 456.602 456.704 30.003 142.746-212.992 212.992-143.36-29.901z m564.634 119.091a112.64 112.64 0 1 0 79.667 32.973 111.82 111.82 0 0 0-79.667-32.973z m0 204.8a92.16 92.16 0 1 1 65.228-157.286 92.16 92.16 0 0 1-65.228 157.286zM479.437 66.048a10.24 10.24 0 0 0-7.27 2.97l-282.42 282.419a10.24 10.24 0 0 0 0 14.438 10.24 10.24 0 0 0 14.541 0l282.317-282.317a10.24 10.24 0 0 0 0-14.54 10.24 10.24 0 0 0-7.168-2.97z m-97.792 18.125a10.24 10.24 0 0 0-7.27 2.97l-224.461 224.46a10.24 10.24 0 0 0 0 14.439 10.24 10.24 0 0 0 14.54 0L389.12 101.58a10.24 10.24 0 0 0 0-14.541 10.24 10.24 0 0 0-7.475-2.867z m57.958-57.959a10.24 10.24 0 0 0-7.27 2.97l-21.709 21.709a10.24 10.24 0 0 0 0 14.54 10.24 10.24 0 0 0 14.438 0l21.812-21.708a10.24 10.24 0 0 0 0-14.541 10.24 10.24 0 0 0-7.27-2.97z"  horiz-adv-x="1024" />

    
    <glyph glyph-name="faxianyiwu" unicode="&#58921;" d="M192 358.4c-19.2-12.8-38.4-32-44.8-32-6.4 0-19.2 0-25.6 6.4-19.2 6.4-38.4 25.6-44.8 44.8L6.4 595.2c-12.8 25.6 0 57.6 25.6 76.8L217.6 812.8c12.8 12.8 32 12.8 44.8 12.8h83.2s134.4-51.2 172.8-51.2c38.4 0 172.8 51.2 172.8 51.2h83.2c19.2 0 32-6.4 44.8-12.8L1004.8 672c25.6-19.2 32-51.2 25.6-76.8L960 377.6c-6.4-19.2-25.6-38.4-44.8-44.8-6.4 0-12.8-6.4-25.6-6.4-6.4 0-25.6 19.2-44.8 32V-64c0-32-32-64-64-64h-512c-32 0-64 25.6-64 64V358.4zM512 576c140.8 0 256 115.2 256 256H256c0-140.8 115.2-256 256-256z"  horiz-adv-x="1032" />

    
    <glyph glyph-name="jixingchangweiyanyiliaobuchang" unicode="&#58922;" d="M533.554 712.004c9.158-18.373 9.158-60.648 42.276-93.765 18.374 22.98 56.04 89.157 173.65 65.255 117.666-22.98 225.197-258.257 70.784-483.395-155.334-226.062-446.651-159.887-507.299 13.764-4.608 23.9-75.334 33.116-79.942-37.669-4.607-70.783-2.764-79.94 1.844-102.92 4.55-23.904-80.922-48.726-91.002-4.61-27.587 69.863-9.215 179.236 18.374 187.473-4.608 70.786 93.765 102.922 155.333 60.647 37.668 22.982 89.158-4.548 131.434-33.058 57.883-38.59 138.746 38.588 102.923 146.12-18.374 56.097-75.392 150.725-84.55 262.864-4.609 37.667 56.96 33.06 66.175 19.294z m0 0"  horiz-adv-x="1024" />

    
    <glyph glyph-name="jiankang" unicode="&#58923;" d="M633.344 565.76c0 45.568 12.8 90.112 37.376 128-37.888-1.024-74.752-10.752-108.544-28.672-25.6-13.312-56.32-13.312-81.92 0-36.864 19.456-78.336 29.184-120.32 29.184-135.68 0-208.896-122.88-208.896-238.08 0-157.696 117.248-300.544 348.16-424.448 14.336-7.68 31.744-7.68 46.08 0 165.888 89.088 273.408 188.416 320.512 295.936-129.024 3.072-232.448 109.056-232.448 238.08zM681.472 694.272h-10.24c-71.168-110.592-38.912-257.536 71.68-328.704 36.864-23.552 79.36-36.864 123.392-37.376 17.92 40.96 27.648 84.992 27.648 129.536 0 116.224-79.872 236.544-212.48 236.544zM681.472 694.272h-10.24c-71.168-110.592-38.912-257.536 71.68-328.704 36.864-23.552 79.36-36.864 123.392-37.376 17.92 40.96 27.648 84.992 27.648 129.536 0 116.224-79.872 236.544-212.48 236.544z"  horiz-adv-x="1024" />

    
    <glyph glyph-name="pingpangqiu-" unicode="&#58924;" d="M258.263 463.64c-2.28-40.154 5.593-80.539 24.108-120.324 11.324-24.313 15.567-51.64 9.1-77.673-10.724-43.183-36.66-77.769-84.058-105.834-18.706-11.078-37.112-22.703-54.344-35.951l-21.706-16.7a26.387 26.387 0 0 1-2.565-39.58l71.343-71.343a26.387 26.387 0 0 1 39.839 2.907l22.457 30.193c11.76 15.799 22.28 32.54 32.104 49.609 27.205 47.247 60.222 73.238 102.027 84.645 25.636 6.998 52.746 3.178 77.141-7.368 37.397-16.181 75.34-23.18 113.106-21.134 2.66 0.15 3.902 3.479 2.02 5.361L263.636 465.645c-1.882 1.883-5.225 0.655-5.374-2.005zM239.34 644.527a122.793 122.793 0 1 1 245.585 0 122.793 122.793 0 1 1-245.586 0zM293.913 630.883a13.643 13.643 0 0 0-13.643 13.644c0 45.147 36.715 81.862 81.861 81.862a13.643 13.643 0 1 0 0-27.288c-30.098 0-54.574-24.476-54.574-54.574a13.643 13.643 0 0 0-13.644-13.644zM826.03 702.635c-94.497 94.496-250.116 99.162-377.22 28.87l0.15-0.136a122.793 122.793 0 0 0 0-173.656c-46.28-46.28-120.242-47.753-168.459-4.708a254.987 254.987 0 0 1-21.87-88.397c0.832 1.897 3.397 2.66 5.007 1.037L588.82 140.462c1.72-1.733 0.765-4.557-1.446-5.157 68.982 3.889 137.31 37.766 200.575 101.031 134.022 134.022 156.33 348.05 38.08 466.3z"  horiz-adv-x="1024" />

    
    <glyph glyph-name="daqiu" unicode="&#58925;" d="M589.312 760.832c20.992-58.368 35.328-128 43.008-204.288 60.416-2.048 117.76-9.216 172.032-20.992 2.56 15.36 5.632 29.184 9.728 40.448 11.264 34.304 29.696 63.488 53.76 86.016 15.872 14.848 33.792 26.112 52.224 32.256-13.824 18.432-29.184 35.328-45.056 51.712-47.104 47.104-101.888 83.968-162.816 109.568C649.216 882.176 582.656 896 514.048 896c30.208-33.792 55.296-78.848 75.264-135.168zM953.856 637.44c-32.256-2.56-65.536-35.84-80.384-80.896-3.072-10.24-6.144-22.016-8.192-36.352 55.808-16.384 107.008-38.4 154.112-65.536-6.144 44.032-17.92 87.552-35.328 128.512-8.192 18.944-16.896 36.864-27.136 54.784-0.512 0-1.536 0-3.072-0.512z m-686.592 45.568c49.152-27.136 83.968-70.144 101.376-123.904 2.048-6.144 3.584-11.776 5.12-17.92 53.76 7.68 106.496 12.8 156.672 15.36 12.8 0.512 26.112 1.024 38.4 1.024-7.168 68.096-19.968 130.048-38.912 182.272-25.6 71.168-60.416 121.856-101.376 146.944-1.024 0.512-2.048 1.536-3.072 2.048-38.4-6.656-76.288-17.408-112.64-32.768-60.928-25.6-115.712-62.976-162.816-109.568a733.507 733.507 0 0 1-26.624-29.696c55.296 0 103.424-11.776 143.872-33.792zM1024 377.344c-48.128 32.768-100.352 57.856-155.648 75.776 2.56-13.312 6.144-27.136 11.264-41.984 20.992-59.904 62.464-119.296 123.392-176.128 13.824 45.568 21.504 93.184 22.016 141.824-0.512 0-1.024 0.512-1.024 0.512z m-450.048 102.4c0 4.608-0.512 9.728-0.512 14.336-64-1.024-129.024-6.656-193.024-15.872 0-13.312-1.024-27.136-3.072-40.96-6.144-43.008-20.992-87.04-44.032-130.048-48.128-90.112-128-168.96-231.424-229.376 14.848-19.968 30.72-38.4 48.64-56.32 47.104-47.104 101.888-83.968 162.816-109.568 44.032-18.432 89.6-30.72 136.704-36.352 84.992 168.448 131.072 394.24 123.904 604.16zM310.784 530.944c-1.024 3.072-1.536 6.144-2.56 9.216C281.6 623.104 199.68 664.064 82.944 651.776h-7.168C62.464 629.76 50.688 607.232 40.96 583.68c-17.92-41.984-29.696-85.504-35.84-130.56 106.496 34.304 208.384 60.416 305.664 77.824z m665.6-356.864c-77.824 68.608-130.56 141.824-156.672 216.576-10.24 29.184-15.872 56.32-17.408 80.896-53.248 12.288-109.056 18.944-165.376 21.504 0-3.584 0.512-7.68 0.512-11.264 3.584-104.96-5.632-216.576-26.624-323.072-20.48-104.448-51.712-201.216-92.16-286.72 67.072 0.512 132.096 14.336 193.536 40.448 60.928 25.6 115.712 62.464 162.816 109.568 43.52 43.52 78.848 94.208 103.936 150.016-1.024 0.512-2.048 1.024-2.56 2.048z m-698.88 162.816c23.552 44.032 36.864 89.088 38.912 130.56-108.032-19.968-212.992-49.152-306.688-79.872-3.072-1.024-6.144-1.536-9.728-1.536V384c0-69.12 13.824-136.192 40.448-199.168 7.68-18.432 16.384-36.352 26.624-53.76 119.296 68.608 180.224 149.504 210.432 205.824z"  horiz-adv-x="1025" />

    
    <glyph glyph-name="jiayou-" unicode="&#58926;" d="M219.5 765H546c35.3 0 64-28.7 64-64v-672c0-35.3-28.7-64-64-64H219.5c-35.3 0-64 28.7-64 64V701c0 35.3 28.7 64 64 64zM141.9 46.8h517.3c3 0 5.4-2.4 5.4-5.4v-4.4c0-39.8-32.2-72-72-72H141.9c-22.6 0-40.9 18.3-40.9 40.9 0 22.6 18.3 40.9 40.9 40.9zM269.4 646.8h226.9c17.7 0 32-14.3 32-32v-181.5c0-17.7-14.3-32-32-32H269.4c-17.7 0-32 14.3-32 32V614.8c0 17.7 14.3 32 32 32zM714.8 153.5h-32V462.6c0 32.8-12.1 70.4-106.7 70.4v32c92.1 0 138.7-34.4 138.7-102.4v-309.1zM685.9 149.6v32c97.7 0 110.2 37.1 110.2 69.5V556.9h32v-305.8c0-67.4-47.8-101.5-142.2-101.5zM819.2 524v31.9H901V524h-81.8z"  horiz-adv-x="1024" />

    
    <glyph glyph-name="rencai-nan" unicode="&#58927;" d="M85.2 880.2h853.7v-992.5H85.2zM815.9-112C814.8 68.7 660 84.1 660 84.1h-95l-1.8 34.7c-58-21.8-115.2 2.8-115.2 2.8v-37.5h-81.3C213.2 66.7 198.1-62.8 198-112h617.9zM825.2-86c-5.8 98.4-83.3 173.5-172 173.5h-88v-10h83.2c85.5 0 160.2-72.3 165.7-167l0.7-22.4h11.9l-1.5 25.9z m-614.8-3.5c5.5 94.7 80.3 167 165.7 167h62.1v10h-67.5c-88.7 0-166.2-75.1-172-173.5l-1.5-26H209l1.4 22.5zM502.2-25.8c-49 0-88.6 39.7-88.6 88.6 0 8.3 1.2 16.7 3.5 24.7h25.7v-10h-18.7c-0.9-4.8-1.4-9.7-1.4-14.6 0-43.9 35.6-79.5 79.5-79.5s79.5 35.6 79.5 79.5c0 5-0.5 9.9-1.4 14.6h-18.7v10h25.7c2.3-8 3.5-16.3 3.5-24.7 0-48.9-39.6-88.6-88.6-88.6z m0 0M450.1 123.7v-56.4c0-29.2 23.7-52.9 53-52.9s53 23.7 53 52.9v55.2c3.1 0.9 6.1 2 9.1 3V67c0-34.6-28-62.6-62.6-62.6S440 32.4 440 67v60.4c3.4-1.4 6.7-2.6 10.1-3.7z m0 0M505.4 696.9c113.7 0 203.4-106.2 200.5-233.8l-3.1-135.6c-2.7-120.2-91.1-215.3-197.4-215.3s-194.6 95-197.4 215.3l-3 135.6c-3 127.6 86.8 233.8 200.4 233.8z m0 0M715 467.3l-3.2-141.1c-2.9-125.1-95.4-224-206.8-224S301 201 298.2 326.1L295 467.2c-3.1 132.8 90.9 243.3 210 243.3s213.1-110.4 210-243.2zM504.5 696c-112.1 0-200.6-105.4-197.7-232l3.1-134.6c2.7-119.3 89.8-213.6 194.7-213.6 104.8 0 191.9 94.3 194.7 213.6l3.1 134.6c2.7 126.6-85.8 232-197.9 232z m0 0M483 184.3h43.9c2 0 3.6-1.6 3.6-3.6s-1.6-3.7-3.6-3.7H483c-2 0.1-3.6 1.7-3.6 3.7 0.1 2 1.6 3.6 3.6 3.6z m-38.4 43.8l5.1 7.1c16.4-9.4 35.8-14.8 56.6-14.8 21.1 0 40.7 5.5 57.2 15.1l5.3-7.4c-17.9-10.4-39.3-16.4-62.2-16.4-22.8 0.1-44.1 6-62 16.4z m0 0M294.7 446.7s-2.2 1.8-6.4 3.1c-2.5 0.8-5.1 1.2-7.7 1.3-1.6 0.1-3.1 0-4.7-0.1-1.7-0.2-3.3-0.5-5-1-6.7-1.9-13.6-6.7-17.7-16.4-2-4.9-3.4-11-3.7-18.6-0.1-2-0.1-4-0.1-6 0-2.1 0.1-4.3 0.3-6.6 0.3-4.6 1-9.7 1.9-15.2 0 0-0.9-16.6 5.1-35.8 5.6-18.7 19-41.7 43.8-48.2-2.7 47.4-2.8 95.8-5.8 143.5z m0 0M297.5 444.8s-43.2 13.4-41.7-31c0 0 6.4-64.4 9.2-70.3 0 0 17.1-42.7 45-39.2-0.2-3.9 0.3-12.1 0.3-12.1s-49.2 6.3-58.7 63l-7.5 51.5s-5.2 68.4 51.3 51c2.7-7.4 2.1-12.9 2.1-12.9M283.3 355.3s-2.4-1.8-4.5-1.8-4.5 1.8-4.5 1.8l-4.5 44.9s6.1 22.1 32.3 10.4l0.6-12.9s-22.9 8.1-22.4-2c0.4-9.6 3-40.4 3-40.4z m0 0M714.4 446.6s2.2 1.8 6.5 3.1c2.5 0.8 5.1 1.2 7.7 1.3 1.6 0.1 3.1 0 4.7-0.1 1.6-0.2 3.3-0.5 5-1 6.8-1.9 13.7-6.6 17.7-16.4 2-4.9 3.4-11 3.7-18.6 0.1-1.9 0.1-3.9 0.1-6 0-2.2-0.1-4.4-0.3-6.6-0.4-4.6-1-9.7-1.9-15.2 0 0 0.9-16.6-5.1-35.7-5.6-18.7-19.1-41.6-44-48.2 2.8 47.4 2.9 95.7 5.9 143.4z m0 0M711.6 444.7s43.4 13.4 41.9-31c0 0-6.5-64.4-9.3-70.3 0 0-17.1-36.7-45.3-38.3 0.9-6.6-0.3-12.9-0.3-12.9s49.4 6.3 59 63c0 0 3.7 37.5 5 44 0.8 6.8 16.7 75.2-48.2 58.8-4.5-3.4-2.8-13.3-2.8-13.3M725.9 355.3s2.4-1.8 4.5-1.8 4.5 1.8 4.5 1.8l4.5 44.9s-6.2 22.1-32.4 10.4l-0.6-12.8s23 8.1 22.5-2c-0.5-9.8-3-40.5-3-40.5z m-204 3.5h3.2c6.6-9 9.3-22.8 12.8-34.7 1.1-3.7 0-10.2-0.9-12.8-3.5-9.6-14.3-9.4-23.3-13.7-2.4-1.2-4.2-3.1-7.3-3.7-2 1.8-4.5 2.1-5.5 5-2.5 3.4 0.7 5.5 3.2 6.8 4.5 2.4 18.4 4.8 20.1 9.1 2.1 2.4 0.7 9.4 0 11.9-1.8 6.3-2.6 11.6-5 17.4-1.6 3.8-4.4 7.8-2.7 12.3 1.3 0.8 4.2 1.4 5.4 2.4z m0 0M615.5 368.9c12.6 0 22.8-10.2 22.8-22.8 0-12.6-10.2-22.8-22.8-22.8-12.6 0-22.8 10.2-22.8 22.8 0 12.6 10.2 22.8 22.8 22.8z m-221.1 0c12.6 0 22.8-10.2 22.8-22.8 0-12.6-10.2-22.8-22.8-22.8-12.6 0-22.8 10.2-22.8 22.8 0 12.6 10.2 22.8 22.8 22.8z m0 0M306.2 455.1s-8.2 87 45.3 133c0 0 127.1-124.9 299.7 0 0 0 62-62 56.6-129.7 0 0 104.6 120 23.8 142.5 0 0-19.9-5.8-27.4 23.8s-21.4 125-210.1 127.9c-188.7 2.9-175.4-113.3-175.4-113.3 0.5-0.3-105-51.6-12.5-184.2z m0 0M707.6 450c-2.2 75.1-56.5 129.9-56.5 129.9-172.6-119.6-298.8 0-298.8 0-40.3-30.9-45.6-130.6-45.6-130.6-104.2 133.1 6.1 191.5 5.5 191.9 0 0-10.6 121.1 178.2 117.9 196.6-3.4 210.9-98 219.3-131.6 6.7-26.8 30.2-21.9 30.2-21.9 84-32.6-31.1-157.1-31.1-157.1l-1.2 1.5z m21.2 145.5s-22.4-5.8-31.1 29.2c-7.3 29.6-15 118.6-203.7 121.5-188.7 2.9-169.9-111.5-169.9-111.5 0.6-0.4-94.8-45.7-24.7-158.1 0 0-2.3 73.7 51.2 119.7 0 0 123-129.9 302.4-0.9 0 0 56.9-54.1 61.2-120.6 0 0.1 83.8 105.5 14.6 120.7zM389.5 413.6c0-9.1 7.4-16.6 16.6-16.6 9.1 0 16.6 7.4 16.6 16.6 0 9.1-7.4 16.6-16.6 16.6-9.1 0-16.6-7.4-16.6-16.6z m203.2 0c0-9.1 7.4-16.6 16.6-16.6 9.2 0 16.6 7.4 16.6 16.6 0 9.1-7.4 16.6-16.6 16.6-9.2 0-16.6-7.4-16.6-16.6z m0 0"  horiz-adv-x="1024" />

    
    <glyph glyph-name="shengxian-shucai" unicode="&#58929;" d="M988.86531 588.8s185.6-651.2-299.2-688-593.6 136-664 299.2l963.2 388.8zM432.06531 825.6s54.4 72 211.2 36.8 376-227.2 366.4-363.2-27.2-153.6 0-200-27.2-81.6-73.6-99.2c-46.4-17.6-17.6-126.4-73.6-126.4-54.4 0-73.6 9.6-118.4 0-46.4-9.6-118.4 108.8-118.4 108.8l-164.8 336-28.8 297.6M48.06531 136s-147.2 336 73.6 571.2c17.6 27.2 46.4 54.4 147.2 54.4s99.2 118.4 163.2 100.8 54.4-81.6 128-81.6 83.2 44.8 118.4 0c36.8-44.8 36.8-108.8 91.2-145.6 54.4-36.8 91.2-27.2 100.8-72 9.6-44.8-46.4-118.4-27.2-145.6s84.8-81.6 20.8-145.6-100.8-64-100.8-108.8 27.2-91.2-36.8-118.4-128-27.2-137.6-64-36.8-54.4-73.6-64c-36.8-9.6-110.4 54.4-147.2 44.8-36.8-6.4-182.4-60.8-320 174.4zM65.66531 118.4s147.2 425.6 604.8 417.6c0 0-366.4 0-550.4-489.6 1.6 0-44.8 35.2-54.4 72zM139.26531 227.2s-110.4 153.6 9.6 344c0 0-73.6-244.8 9.6-308.8l-19.2-35.2z m211.2 217.6s-17.6 180.8 137.6 254.4c0 0-128-99.2-100.8-235.2l-36.8-19.2z m-73.6-99.2s137.6-153.6 393.6-81.6c0 0-192-118.4-412.8 44.8l19.2 36.8z m-128-200c73.6-91.2 284.8-91.2 284.8-91.2-201.6 9.6-265.6 126.4-265.6 126.4l-19.2-35.2z"  horiz-adv-x="1024" />

    
    <glyph glyph-name="rencai-nv" unicode="&#58930;" d="M85.4 881.3h853.3v-992H85.4zM818.4 139.4c-40.5-177-247.6-107.7-318.3-78.3v0.2c-70.7-29.4-277.8-98.8-318.3 78.3 0 0 72.6-0.8 50.8 226.9 0 0 13.4 558.1 371.7 363 217.6-3.3 163.3-363.4 163.3-363.4-21.8-227.5 50.8-226.7 50.8-226.7z m0 0M666.5 17.1c-65 0-132.2 23.7-166.6 37.8-50.3-20.6-169.8-61.2-250.3-19.6-37.5 19.3-62.3 54-73.5 103.1l-1.6 7.2 7.4-0.1c0.3 0 9.1 0.4 19.4 11.9 15.3 17.3 39.1 67.5 25.6 208.6v0.6c0 0.8 2 76.4 21.8 161.3 11.7 50 27.1 93.4 45.9 129.1 23.8 45 53 77.8 87 97.4 60.6 35 136.1 28.5 224.3-19.2 47.1-1.1 85.4-18.6 113.9-52.2 35.9-42.4 55.8-108.8 59.2-197.5 2.4-63.8-5.1-116.7-5.6-120.1-13.6-142.2 10.6-192 26.2-209 9.9-10.8 18.6-11.2 18.7-11.2l7.4 0.1-1.7-7.2c-11.2-49-35.9-83.7-73.4-103-25.2-13-54.4-18-84.1-18z m-160.5 48c49.4-20.1 163.7-58.5 239.4-19.5 32.8 16.9 55 47 66 89.3-5.2 1.6-12.6 5.3-20.2 13.7-20.7 22.5-42.6 78.7-29.2 218.1v0.3c0.3 2.1 30.8 212-51 308.5-26.5 31.3-62.4 47.4-106.6 48.1H603l-1.3 0.7c-85 46.3-157 53-214.1 20.1-73.1-42.1-109.7-142.2-127.6-218.9-18.9-80.9-21.4-153.3-21.6-158.8 13.3-139.3-8.6-195.4-29.3-218-7.7-8.4-15-12-20.2-13.7 11-42.4 33.2-72.5 66-89.4 77.5-40 195.7 1.4 242.9 21.1l8.1 3.4v-5zM434.7 157.5h127.5v-68.7H434.7zM850.4-110.6c-17.9 55.9-55.9 138.7-147.4 187.4-24.9 13.2-52 21.5-80 24.9l-56.2 6.8H439.9c-192.1 4-253-167.9-267-219h677.5zM700.3 71.6c67.9-36.1 116.3-97.4 144-182.2h12.3c-28.4 89.7-79.1 154.4-150.8 192.5-25.3 13.5-52.9 22-82 25.5l-56.2 6.8-1.4-11.6 56.2-6.8c27.6-3.3 53.8-11.5 77.9-24.2zM179-110.6c14.9 54.1 75.4 217 260.8 213.2l0.2 11.7c-51.5 1-97.9-10.3-138-33.8-32.3-18.9-60.5-45.6-83.9-79.5-30.4-44-45.2-89.1-51.2-111.6H179zM499.3-11.1c-53.1 0-96.1 43-96.1 96.1 0 9.1 1.3 18.1 3.8 26.8h27.9v-10.9h-20.3c-1-5.2-1.5-10.5-1.5-15.9 0-47.6 38.6-86.2 86.2-86.2s86.2 38.6 86.2 86.2c0 5.4-0.5 10.7-1.5 15.9h-20.3v10.9l28.2-1c2.5-8.7 3.5-16.7 3.5-25.7 0.1-53.2-43-96.2-96.1-96.2z m0 0M442.8 151.5v-61.1c0-31.7 25.7-57.4 57.5-57.4 31.7 0 57.5 25.7 57.5 57.4v59.9c3.3 1 6.6 2.1 9.9 3.3V90c0-37.5-30.4-67.9-67.9-67.9-37.5 0-67.9 30.4-67.9 67.9v65.5c3.6-1.4 7.2-2.8 10.9-4z m0 0M500.5 689c105.3 0 188.4-98.4 185.7-216.7l-2.9-125.7c-2.5-111.4-84.4-199.5-182.9-199.5s-180.3 88.1-182.8 199.5l-2.9 125.7C312.1 590.6 395.2 689 500.5 689z m0 0M694.7 476.3l-3-130.8C689.1 229.6 603.3 138 500.1 138c-103.2 0-188.9 91.6-191.6 207.6l-3 130.8c-2.8 123 84.3 225.4 194.6 225.4 110.4-0.1 197.5-102.5 194.6-225.5z m-195 211.9c-103.9 0-185.9-97.6-183.2-215l2.8-124.7c2.5-110.5 83.2-197.9 180.4-197.9 97.1 0 177.8 87.4 180.4 197.9l2.8 124.7c2.7 117.4-79.3 215-183.2 215z m0 0M591.5 270.7c-15.4-13.4-50.1-26.1-90.6-26.1-40.4 0-75.2 12.7-90.6 26.1 0 0-1.6 4.3 0.7 6.6 2.4 2.3 6 1.8 6 1.8 15.4-13.4 43.4-24.4 83.8-24.4 40.5 0 68.4 11 83.8 24.4 0 0 3.8 1.4 5.6-0.4 3.7-3.5 1.3-8 1.3-8zM473 224.3h54.2v-8.5H473v8.5z m-66 223.5c9.3 0 16.9-7.6 16.9-16.9 0-9.4-7.6-16.9-16.9-16.9-9.3 0-16.9 7.6-16.9 16.9 0 9.3 7.6 16.9 16.9 16.9z m187.9 0c9.3 0 16.9-7.6 16.9-16.9 0-9.4-7.6-16.9-16.9-16.9s-16.9 7.6-16.9 16.9c0 9.3 7.6 16.9 16.9 16.9z m0 0M406.2 385.1c16.4 0 29.6-0.9 29.6-19.5 0-19.1-13.3-19.5-29.6-19.5-16.4 0-29.6 3.5-29.6 19.5-0.1 18.8 13.2 19.5 29.6 19.5z m196.3 0c16.4 0 29.6-0.9 29.6-19.5 0-19.1-13.3-19.5-29.6-19.5-16.4 0-29.6 3.5-29.6 19.5 0 18.8 13.3 19.5 29.6 19.5z m0 0M545.8 478.5l4.9-6.2 3-3.9s53.9 29.7 91.3-4.6l4-2s-9.2 49.8-89.8 20.7c-4.6-1.2-9-2.6-13.4-4z m-93.3-0.1l-4.9-6.2-3-3.9s-53.9 29.7-91.3-4.6l-4-2s9.2 49.6 89.8 20.6c4.3-1 8.7-2.3 13.4-3.9z m228.8 72.7M303.3 457.2s-2.1 1.6-6 2.9c-2.3 0.7-4.7 1.1-7.1 1.2-1.4 0.1-2.9 0-4.3-0.1-1.5-0.2-3.1-0.4-4.6-0.9-6.3-1.8-12.6-6.2-16.4-15.2-1.9-4.5-3.1-10.2-3.4-17.3-0.1-1.9-0.1-3.7-0.1-5.6 0-2 0.1-4 0.3-6.2 0.3-4.3 0.9-9 1.8-14.1 0 0-0.8-15.4 4.7-33.1 5.2-17.3 17.6-38.6 40.6-44.7-2.6 44.1-2.7 88.9-5.5 133.1z m0 0M307.9 455.4s-40 12.4-38.6-28.7c0 0 6-59.7 8.6-65.2 0 0 21.4-40 41.7-36.3-0.1-3.9 0.4-8.2 0.3-11.2 0 0-45.6 5.8-54.4 58.4l-6.9 47.7s-2 63.2 50.4 47.1c-0.9-5.4-1.1-11.8-1.1-11.8M294.7 372.5s-2.2-1.7-4.2-1.7c-1.9 0-4.1 1.7-4.1 1.7l-4.1 41.6s5.7 20.5 29.9 9.7l0.6-11.9s-21.2 7.5-20.8-1.8c0.4-9 2.7-37.6 2.7-37.6z m0 0M696.2 457.1s2.1 1.6 6 2.9c2.3 0.7 4.7 1.1 7.1 1.2 1.4 0.1 2.9 0 4.3-0.1 1.6-0.2 3.1-0.5 4.6-0.9 6.3-1.8 12.7-6.2 16.4-15.2 1.9-4.5 3.1-10.2 3.5-17.3 0.1-1.8 0.1-3.6 0.1-5.6 0-2-0.1-4.1-0.3-6.1-0.3-4.3-0.9-9-1.8-14.1 0 0 0.8-15.4-4.7-33.1-5.2-17.3-17.7-38.6-40.8-44.7 2.7 44.1 2.8 88.9 5.6 133z m0 0M691.5 455.3s40.2 12.4 38.8-28.7c0 0-6-59.6-8.6-65.1 0 0-12.2-27.4-41.8-36.3 0-1-0.3-11.2-0.3-11.2s45.8 5.8 54.7 58.4l7 47.7s5.4 63.1-47.2 47.1c-2.9-1.2 0 0 0 0l-2.6-11.9M704.8 372.5s2.2-1.7 4.2-1.7c1.9 0 4.2 1.7 4.2 1.7l4.1 41.6s-5.7 20.5-30 9.7l-0.6-11.9s21.3 7.5 20.9-1.8c-0.4-9.1-2.8-37.6-2.8-37.6z m-189 3.3h3c6.1-8.3 8.6-21.1 11.9-32.2 1-3.4 0-9.4-0.9-11.8-3.2-8.9-13.3-8.7-21.6-12.7-2.2-1.1-3.9-2.9-6.8-3.4-1.9 1.7-4.2 2-5.1 4.7-2.3 3.1 0.7 5.1 3 6.3 4.2 2.2 17.1 4.5 18.6 8.5 1.9 2.2 0.6 8.7 0 11-1.6 5.9-2.4 10.8-4.7 16.1-1.5 3.5-4.1 7.2-2.5 11.4 1.3 0.6 4 1.2 5.1 2.1z m0 0M694.8 492.1c-17.4-32.4-119.5 138.4-119.5 138.4S480.7 535 289.2 511.9c0 52.3 27.8 207.7 228.9 194.5 102.9 0 189.6-118.7 176.7-214.3zM685.1 485.6c-26.2 0-45.6 35-66 71.9-14 25.2-28.4 51.2-44.9 66.2-59.5-51.6-127.4-79.9-174.3-94.5-51.9-16.2-89.1-19.7-90.6-19.8l-1 11.6c1.5 0.1 149.4 14.5 262 114.8l3.6 3.3 3.8-3c20-15.7 36.1-44.7 51.6-72.8 20.4-36.8 39.7-71.6 61.6-64.9l3.4-11.2c-3.1-1.1-6.2-1.6-9.2-1.6z"  horiz-adv-x="1024" />

    
    <glyph glyph-name="xingxinghao-" unicode="&#58931;" d="M856.538 532.262C840.538 561.6 653.606 576 653.606 576S558.938 751.45 534.4 756.25c-20.8 10.15-120-174.656-120-174.656s-189.338-30.67-195.2-54.4c0-33.908 131.2-155.2 131.2-155.2s-35.738-210.407-19.162-228.352c24.5-21.517 203.162 93.952 203.162 93.952s176-112 202.406-94.4C759.206 137.587 720 387.2 720 387.2s137.549 112 136.538 145.062zM738.189 651.994s20.608-45.863 28.237-45.812c3.788-4.096 28.953 51.354 28.953 51.354s42.547 4.34 46.707 11.123c0.679 8.026-35.059 35.687-35.059 35.687s4.16 47.859-0.128 52.083c-2.854 4.787-47.296-19.277-47.296-19.277s-42.176 18.906-46.515 14.9c-4.493-6.823 5.875-48.628 5.875-48.628s-35.085-37.632-34.125-43.43c2.087-7.578 53.35-8 53.35-8z"  horiz-adv-x="1024" />

    
    <glyph glyph-name="yijianfankui" unicode="&#58932;" d="M725.87 745.397H298.128c-68.384 0-123.82-55.436-123.82-123.82v-163.255L512 267.383l337.692 190.939V621.577c0 68.384-55.437 123.82-123.82 123.82zM660.72 473.88H363.28v51.165h297.44v-51.165z m0 116.657H363.28v51.165h297.44v-51.165zM747.376 318.184l69.227-161.529L670.97 274.982l-141.343-79.92a35.808 35.808 0 0 0-35.257 0l-141.344 79.92-145.631-118.327 69.227 161.529L65.838 437.365V102.42c0-44.082 35.736-79.818 79.818-79.818h732.687c44.082 0 79.818 35.736 79.818 79.818V437.365L747.376 318.184z"  horiz-adv-x="1024" />

    
    <glyph glyph-name="zhuanjia" unicode="&#58933;" d="M500.3 649.1c-0.7 0-1.4 0-2.1 0.1l-259.7 36.5c-6.9 1-12.1 6.5-12.7 13.4-0.6 6.9 3.7 13.3 10.2 15.4l259.7 82.9c2.8 0.9 5.7 0.9 8.5 0.2l266.1-74.4c6.7-1.9 11.2-8.1 10.8-15-0.4-6.9-5.5-12.7-12.3-13.8l-266.1-45.1c-0.8-0.1-1.6-0.2-2.4-0.2zM306.9 706l193.2-27.1 198.6 33.6-198.1 55.3L306.9 706zM493.9 557.1c-97.9 0-160.9 29.4-164.8 31.2-5.1 2.5-8.4 7.7-8.4 13.4v83c0 8.2 6.6 14.8 14.8 14.8 8.2 0 14.8-6.6 14.8-14.8v-73.1c31.5-12.1 148.3-48.8 298.3 0.7v64.5c0 8.2 6.6 14.8 14.8 14.8s14.8-6.6 14.8-14.8v-75.1c0-6.3-4-11.9-9.9-14-65.1-22.9-124.3-30.6-174.4-30.6z m7.7-178.6c-78.6 0-142.6 64-142.6 142.6 0 8.2 6.6 14.8 14.8 14.8 8.2 0 14.8-6.6 14.8-14.8 0-62.3 50.7-112.9 112.9-112.9s112.9 50.7 112.9 112.9c0 8.2 6.6 14.8 14.8 14.8s14.8-6.6 14.8-14.8c0.2-78.7-63.7-142.6-142.4-142.6zM845.2-29.8c-8.2 0-14.8 6.6-14.8 14.8 0 174.5-96.5 325.8-240.2 376.5-58.2 20.6-121.8 22.4-180.7 5.3-147.1-42.5-251-192.2-256.5-367h574.6c8.2 0 14.8-6.6 14.8-14.8s-6.6-14.8-14.8-14.8H137.9c-8.2 0-14.8 6.6-14.8 14.8 0 194.2 114.4 363 278.2 410.3 64.8 18.7 134.8 16.7 198.8-5.9 155.5-54.8 260-217.4 260-404.4 0-8.2-6.7-14.8-14.9-14.8zM365.7 505.9c-20 0-34.9 5.5-44.4 16.5-13.5 15.6-9.6 35-9.1 37.1 1.8 8 9.7 13 17.7 11.2 7.9-1.8 12.9-9.6 11.2-17.5-0.1-0.4-1.2-7.2 2.7-11.5 4.4-4.9 14.6-6.9 28.9-5.8 8.4 0.6 15.3-5.5 15.9-13.6 0.6-8.2-5.5-15.3-13.6-15.9-3.2-0.4-6.3-0.5-9.3-0.5z m274.9 0c-3 0-6.1 0.1-9.3 0.4-8.2 0.6-14.2 7.8-13.6 15.9 0.6 8.1 7.5 14.3 15.9 13.6 14.3-1.1 24.5 1 28.9 5.8 4 4.5 2.7 11.5 2.7 11.6-1.5 7.9 3.6 15.8 11.5 17.4 7.9 1.6 15.7-3.2 17.4-11.1 0.5-2.2 4.4-21.5-9.1-37.1-9.5-10.9-24.4-16.5-44.4-16.5zM501.6 178.5c-5.6 0-10.6 3.1-13.2 8.1l-96.2 187.7c-3.7 7.3-0.9 16.2 6.4 19.9 7.2 3.8 16.2 0.9 19.9-6.4l83.1-162L582 382.3c3.7 7.2 12.6 10.1 19.9 6.4 7.3-3.7 10.1-12.7 6.4-19.9l-93.5-182.2c-2.5-4.9-7.6-8.1-13.2-8.1z m-261 301.2c-4.1 0-7.4 3.3-7.4 7.4V700.4c0 4.1 3.3 7.4 7.4 7.4s7.4-3.3 7.4-7.4v-213.3c0-4.1-3.3-7.4-7.4-7.4zM225.8 455a14.8 14.8 0 1 1 29.6 0 14.8 14.8 0 1 1-29.6 0zM225.8 416.6a14.8 14.8 0 1 1 29.6 0 14.8 14.8 0 1 1-29.6 0z"  horiz-adv-x="1024" />

    
    <glyph glyph-name="dengdai-" unicode="&#58917;" d="M491.52 593.9200000000001l4.096-278.016H297.472c-10.24 0-18.944-8.192-18.944-18.944 0-10.24 8.192-18.944 18.944-18.944h217.6c5.12 0 9.728 2.048 13.312 5.632 3.584 3.584 5.632 8.192 5.632 13.312l-4.608 296.96c0 10.24-8.704 18.432-18.944 18.432-10.752 0-18.944-8.192-18.944-18.432zM512 832c-247.296 0-448-201.216-448-448s201.216-448 448-448 448 201.216 448 448-200.704 448-448 448z m0-858.624c-226.304 0-410.624 184.32-410.624 410.624s184.32 410.624 410.624 410.624 410.624-184.32 410.624-410.624-184.32-410.624-410.624-410.624z"  horiz-adv-x="1024" />

    
    <glyph glyph-name="shouji-" unicode="&#58915;" d="M798.723 721.217c0 60.577-49.106 109.683-109.683 109.683H334.332c-60.577 0-109.684-49.106-109.684-109.683v-673.98c0-60.577 49.107-109.683 109.684-109.683H689.04c60.577 0 109.683 49.106 109.683 109.683v673.98z m-534.166-62.232h494.257v-529.05H264.557v529.05z m69.8 132.006h354.66c38.549 0 69.798-31.25 69.798-69.798v-22.3H264.558v22.3c0 38.548 31.25 69.798 69.798 69.798z m354.66-813.528h-354.66c-38.55 0-69.8 31.25-69.8 69.799V91.05h494.257v-43.788c0-38.55-31.25-69.799-69.797-69.799zM513.174 66.057c-16.708 0-30.301-13.594-30.301-30.301 0-16.708 13.593-30.302 30.3-30.302s30.3 13.594 30.3 30.302c0 16.707-13.592 30.3-30.3 30.3z"  horiz-adv-x="1024" />

    
    <glyph glyph-name="anquan" unicode="&#58916;" d="M938.667 718.507c-3.414 6.826-6.827 13.653-17.067 13.653-146.773 3.413-286.72 51.2-406.187 143.36-6.826 3.413-13.653 3.413-20.48 0C382.293 786.773 245.76 738.987 102.4 732.16c-6.827 0-13.653-6.827-17.067-13.653-13.653-51.2-17.066-105.814-17.066-160.427 0-286.72 170.666-546.133 436.906-658.773h13.654c266.24 112.64 436.906 368.64 436.906 658.773 0 54.613-6.826 109.227-17.066 160.427zM512-63.147C262.827 46.08 102.4 288.427 102.4 561.493c0 47.787 3.413 95.574 13.653 139.947 139.947 6.827 276.48 54.613 389.12 139.947 116.054-88.747 256-136.534 402.774-139.947 10.24-44.373 13.653-92.16 13.653-139.947 0-273.066-160.427-518.826-409.6-624.64zM720.213 547.84l-225.28-259.413L337.92 445.44c-6.827 6.827-17.067 6.827-23.893 0s-6.827-17.067 0-23.893L484.693 250.88s3.414 0 3.414-3.413h20.48s3.413 0 3.413 3.413l238.933 273.067c6.827 6.826 6.827 17.066 0 23.893-13.653 10.24-23.893 6.827-30.72 0z"  horiz-adv-x="1024" />

    
    <glyph glyph-name="chenggong" unicode="&#58903;" d="M738.6 563.4l-312.9-319-140.4 140.4c-7.3 7.3-19.2 7.3-26.5 0-7.3-7.3-7.3-19.2 0-26.5l153.8-153.8c3.5-3.5 8.3-5.5 13.3-5.5h0.1c5 0 9.8 2.1 13.3 5.6l326.2 332.5c7.2 7.4 7.1 19.3-0.3 26.5-7.5 7.3-19.4 7.2-26.6-0.2zM512 832.2C264.9 832.2 63.8 631.1 63.8 384S264.9-64.2 512-64.2 960.2 136.9 960.2 384 759.1 832.2 512 832.2z m0-858.9c-226.5 0-410.7 184.2-410.7 410.7S285.5 794.7 512 794.7 922.7 610.5 922.7 384 738.5-26.7 512-26.7z"  horiz-adv-x="1024" />

    
    <glyph glyph-name="bangding" unicode="&#58904;" d="M899.322 511.113L703.465 315.278c-17.772-17.772-46.58-17.772-64.352 0l-46.33 46.308 26.077 26.078 31.54-31.266c8.897-8.875 23.301-8.875 32.176 0l176.992 177.015c8.898 8.875 8.898 23.279 0 32.176L691.814 731.91c-8.897 8.898-23.279 8.898-32.176 0L482.645 554.94c-8.897-8.897-8.897-23.301 0-32.176l32.586-32.313-25.645-25.645-46.33 46.308c-17.773 17.772-17.773 46.58 0 64.352L639.112 771.3c17.772 17.772 46.58 17.772 64.352 0l195.857-195.835c17.772-17.772 17.772-46.58 0-64.352zM391.964 263.327c-8.897 8.875-8.897 23.28 0 32.177l209.17 209.146c8.897 8.897 23.301 8.897 32.199 0 8.874-8.875 8.874-23.279 0-32.176L424.14 263.327c-8.875-8.874-23.28-8.874-32.177 0z m13.859 117.715l-32.586 32.29c-8.875 8.897-23.28 8.897-32.177 0l-176.992-176.97c-8.875-8.897-8.875-23.302 0-32.176L331.822 37.82c8.897-8.898 23.301-8.898 32.176 0L540.99 214.812c8.897 8.898 8.897 23.302 0 32.2l-31.54 31.243 24.94 24.94 46.33-46.308c17.773-17.772 17.773-46.58 0-64.352L384.866-3.322c-17.772-17.75-46.58-17.75-64.353 0L124.655 192.535c-17.772 17.772-17.772 46.58 0 64.352l195.857 195.835c17.772 17.772 46.58 17.772 64.353 0l46.33-46.308-25.372-25.372z"  horiz-adv-x="1024" />

    
    <glyph glyph-name="cuowu-" unicode="&#58905;" d="M514.177 895.12C232.445 895.12 3.183 665.857 3.183 384.125s229.262-510.994 510.994-510.994 510.993 229.262 510.993 510.994S795.91 895.119 514.177 895.119z m0-981.093c-259.209 0-470.099 210.89-470.099 470.099 0 259.208 210.89 470.099 470.099 470.099 259.208 0 470.099-210.89 470.099-470.1 0-259.208-210.89-470.098-470.1-470.098z m0 0M694.49 183.302c-5.536 0-10.695 2.14-14.596 6.04L513.8 355.437 348.208 189.342c-3.9-3.9-9.06-6.04-14.596-6.04-5.537 0-10.696 2.14-14.47 6.04-8.054 8.053-7.928 21.013 0 29.066l166.094 165.97-165.969 165.591c-3.9 3.9-6.04 9.06-6.04 14.596 0 5.537 2.14 10.696 6.04 14.47 3.9 3.901 9.06 6.04 14.47 6.04 5.537 0 10.696-2.139 14.597-6.04l166.094-166.094L680.02 579.036c3.9 3.9 9.06 6.04 14.47 6.04 5.537 0 10.696-2.14 14.47-6.04 3.901-3.901 6.04-9.06 6.04-14.47 0-5.537-2.139-10.696-6.04-14.471l-166.094-165.97 166.095-165.59c3.9-3.901 6.04-9.06 6.04-14.597 0-5.536-2.14-10.695-6.04-14.47-3.775-4.027-8.934-6.166-14.47-6.166z m0 0"  horiz-adv-x="1387" />

    
    <glyph glyph-name="fanhui" unicode="&#58906;" d="M710.154 887.02L266.007 435.307a81.119 81.119 0 0 1 0.862-114.476l446.193-441.05a26.923 26.923 0 0 1 37.853 38.284l-446.193 441.05a27.273 27.273 0 0 0-0.323 38.447L748.546 849.274a26.923 26.923 0 1 1-38.365 37.719z"  horiz-adv-x="1024" />

    
    <glyph glyph-name="kefu" unicode="&#58907;" d="M913 476.597h-32.839c-2.722 40.711-12.106 80.254-28.012 117.86-18.486 43.706-44.945 82.951-78.642 116.648-33.696 33.696-72.942 60.155-116.647 78.641C611.599 808.89 563.533 818.597 514 818.597c-49.534 0-97.599-9.707-142.86-28.851-43.706-18.485-82.951-44.944-116.648-78.641-33.696-33.697-60.155-72.942-78.641-116.648-15.906-37.606-25.291-77.149-28.012-117.86H115c-30.327 0-55-24.673-55-55V101.35c0-2.613 0.402-5.132 1.146-7.5 7.87-55.403 55.609-98.149 113.152-98.149H448c2.576 0 5.062 0.391 7.4 1.114 10.379-35.832 43.467-62.114 82.6-62.114 47.421 0 86 38.579 86 86s-38.579 86-86 86c-39.133 0-72.221-26.282-82.6-62.114a24.981 24.981 0 0 1-7.4 1.114H174.299C138.844 45.701 110 74.546 110 110V421.597c0 2.757 2.243 5 5 5h114c2.757 0 5-2.243 5-5V220c0-13.808 11.193-25 25-25s25 11.192 25 25V421.597c0 30.327-24.673 55-55 55h-31.017c12.79 163.153 149.636 292 316.017 292s303.228-128.847 316.017-292H799c-30.327 0-55-24.673-55-55v-264.195c0-30.327 24.673-55 55-55h114c30.327 0 55 24.673 55 55V421.597c0 30.327-24.673 55-55 55zM538 66.701c25.364 0 46-20.636 46-46s-20.636-46-46-46-46 20.636-46 46 20.636 46 46 46z m380 90.701c0-2.757-2.243-5-5-5H799c-2.757 0-5 2.243-5 5V421.597c0 2.757 2.243 5 5 5h114c2.757 0 5-2.243 5-5v-264.195z"  horiz-adv-x="1024" />

    
    <glyph glyph-name="nan" unicode="&#58908;" d="M952.358 445.674h-40.932V790.01H590.892V830.942h361.466zM915.202 821.96l29.9-27.953L689.324 520.4l-29.9 27.952zM430.902-62.03c-48.645 0-95.848 9.532-140.294 28.333-42.917 18.153-81.457 44.138-114.548 77.23-33.09 33.091-59.071 71.63-77.223 114.546-18.797 44.439-28.328 91.632-28.328 140.266 0 48.647 9.531 95.85 28.329 140.293 18.151 42.919 44.133 81.459 77.223 114.55 33.091 33.089 71.63 59.072 114.55 77.222 44.443 18.797 91.646 28.328 140.292 28.328 48.648 0 95.85-9.53 140.294-28.328 42.917-18.151 81.458-44.133 114.548-77.224 33.09-33.09 59.072-71.63 77.222-114.549 18.797-44.444 28.329-91.646 28.329-140.293 0-48.633-9.53-95.827-28.329-140.266-18.151-42.916-44.133-81.455-77.222-114.545-33.092-33.093-71.63-59.077-114.547-77.231-44.447-18.8-91.649-28.333-140.296-28.333z m0 679.836c-176.151 0-319.46-143.309-319.46-319.46 0-176.143 143.309-319.444 319.46-319.444 176.151 0 319.46 143.301 319.46 319.443 0 176.151-143.308 319.461-319.46 319.461z"  horiz-adv-x="1024" />

    
    <glyph glyph-name="nv" unicode="&#58909;" d="M626.776 896C407.393 896 229.535 717.736 229.535 497.858c0-107.184 42.337-204.411 111.086-275.985L216.1 105.773 68.98 260.377l-31.991-30.437 146.82-154.27L0-95.727 30.084-128l184.162 171.679 141.312-148.48 31.955 30.437-140.976 148.145 126.41 117.848c68.838-57.38 157.29-91.913 253.812-91.913 219.4 0 397.241 178.265 397.241 398.142C1024 717.736 846.16 896 626.776 896z m0-752.128c-194.683 0-353.086 158.79-353.086 353.986S432.093 851.844 626.776 851.844c194.702 0 353.086-158.79 353.086-353.986S821.478 143.872 626.776 143.872z"  horiz-adv-x="1024" />

    
    <glyph glyph-name="saomiao-" unicode="&#58910;" d="M22.26 616.15c12.721 0 19.082 6.36 19.082 19.08V857.839H263.95c12.72 0 19.081 6.36 19.081 19.08S276.671 896 263.951 896H15.9C9.54 896 3.18 889.64 3.18 883.28v-248.05c0-6.36 6.36-19.08 19.08-19.08zM1001.74 896H753.69c-12.721 0-19.081-6.36-19.081-19.08s6.36-19.081 19.08-19.081h228.97v-222.61c0-12.72 6.36-19.08 19.08-19.08s19.08 12.72 19.08 19.08V883.28c0 6.36-6.36 12.721-19.08 12.721zM263.95-83.478H41.342V145.49c0 12.72-6.36 19.08-19.081 19.08s-19.08-12.72-19.08-25.44v-248.05c0-6.36 6.36-12.72 12.72-12.72h248.05c12.72 0 19.08 6.36 19.08 19.08s-6.36 19.08-19.08 19.08zM1001.74 158.211c-12.721 0-19.082-6.36-19.082-19.08v-228.97H753.69c-12.72 0-19.08-6.36-19.08-19.08s6.36-19.081 19.08-19.081h248.05c12.72 0 19.08 6.36 19.08 19.08V139.13c0 12.72-6.36 19.081-19.08 19.081zM1001.74 406.26H22.26c-12.72 0-19.08-6.36-19.08-19.08 0-12.72 6.36-19.08 19.08-19.08h979.48c12.72 0 19.08 6.36 19.08 19.08 0 12.72-6.36 19.08-19.08 19.08z"  horiz-adv-x="1024" />

    
    <glyph glyph-name="touxiang-" unicode="&#58911;" d="M622.08 440.32c-2.56-5.12-10.24-7.68-17.92-5.12l-61.44 30.72c-10.24 5.12-10.24 17.92 0 23.04l61.44 30.72c5.12 2.56 12.8 0 17.92-5.12 2.56-5.12 0-12.8-5.12-17.92l-38.4-20.48 38.4-20.48c5.12-2.56 7.68-10.24 5.12-15.36zM478.72 253.44c-58.88 0-89.6 48.64-89.6 135.68v15.36c0 5.12 2.56 7.68 7.68 7.68h161.28c5.12 0 7.68-2.56 7.68-7.68v-15.36c2.56-87.04-30.72-135.68-87.04-135.68zM355.84 476.16c0 17.92 12.8 30.72 30.72 30.72s30.72-12.8 30.72-30.72-12.8-30.72-30.72-30.72-30.72 12.8-30.72 30.72z m230.4 337.92c-23.04 0-46.08-12.8-56.32-33.28-5.12 2.56-10.24 7.68-15.36 10.24-23.04 10.24-46.08 12.8-51.2 2.56s10.24-28.16 33.28-38.4c7.68-2.56 12.8-5.12 20.48-7.68-5.12-2.56-12.8-5.12-20.48-7.68-23.04-10.24-38.4-28.16-33.28-38.4 5.12-10.24 25.6-10.24 48.64 2.56 5.12 2.56 10.24 5.12 15.36 10.24 12.8-20.48 33.28-33.28 56.32-33.28 20.48 0 38.4 7.68 48.64 23.04 97.28-30.72 171.52-115.2 192-217.6-48.64 102.4-156.16 174.08-276.48 174.08-168.96 0-307.2-138.24-307.2-307.2v-61.44c-56.32-46.08-99.84-115.2-122.88-199.68 17.92-17.92 40.96-35.84 61.44-51.2 10.24 56.32 30.72 107.52 58.88 145.92v-181.76c64-33.28 138.24-51.2 215.04-51.2 166.4 0 312.32 84.48 399.36 212.48v94.72c28.16 51.2 46.08 110.08 46.08 174.08 0 161.28-107.52 296.96-256 340.48-7.68 23.04-30.72 38.4-56.32 38.4z"  horiz-adv-x="1024" />

    
    <glyph glyph-name="tanhao-" unicode="&#58912;" d="M512.17-61.735c-57.799 0-114.017 10.95-167.3 32.511-55.201 22.352-104.646 55.202-147.092 97.648-42.445 42.445-75.295 91.89-97.647 147.092-21.561 53.283-32.512 109.613-32.512 167.299 0 57.798 10.95 114.016 32.512 167.299 22.352 55.201 55.202 104.646 97.647 147.092 42.446 42.445 91.89 75.295 147.092 97.647 53.283 21.562 109.614 32.512 167.3 32.512s114.015-10.95 167.298-32.512c55.202-22.352 104.647-55.202 147.092-97.647 42.446-42.446 75.296-91.89 97.648-147.092 21.561-53.283 32.511-109.614 32.511-167.3 0-57.798-10.95-114.015-32.511-167.298-22.352-55.202-55.202-104.647-97.648-147.092-42.445-42.446-91.89-75.296-147.092-97.648-53.283-21.561-109.613-32.511-167.299-32.511z m0 841.461c-106.002 0-205.568-41.317-280.525-116.16-74.958-74.958-116.161-174.524-116.161-280.526s41.316-205.567 116.16-280.524c74.958-74.957 174.524-116.161 280.525-116.161s205.568 41.316 280.525 116.16S908.855 277.04 908.855 383.04s-41.317 205.568-116.16 280.525c-74.958 74.844-174.637 116.161-280.526 116.161zM515.217 238.77c-13.208 0-24.045 10.725-24.045 24.046V645.277c0 13.208 10.725 24.045 24.045 24.045 13.208 0 24.045-10.724 24.045-24.045v-382.574c-0.113-13.208-10.837-23.932-24.045-23.932zM485.867 138.188a29.35 29.35 0 1 1 58.701 0 29.35 29.35 0 1 1-58.701 0zM515.217 108.273c-16.481 0-29.915 13.434-29.915 29.915s13.434 29.915 29.915 29.915 29.915-13.433 29.915-29.915-13.433-29.915-29.915-29.915z m0 58.588c-15.804 0-28.786-12.869-28.786-28.786s12.87-28.786 28.786-28.786 28.787 12.87 28.787 28.786-12.983 28.786-28.787 28.786z"  horiz-adv-x="1024" />

    
    <glyph glyph-name="toudichenggong" unicode="&#58913;" d="M266.307 92.811l0.043 0.043c4.074-6.463 11.817-10.537 20.157-10.537 12.244 0 21.864 9.94 21.864 22.184 0 4.33-1.194 8.361-3.285 11.774l0.043 0.043a389.244 389.244 0 0 0-44.155 180.5c0 217.361 178.262 394.236 397.414 394.236a397.819 397.819 0 0 0 284.83-119.58c69.645-71.053 112.583-167.959 112.583-274.655 0-60.28-13.694-117.447-38.182-168.599a20.69 20.69 0 0 1-2.943-10.558c0-12.287 11.156-22.227 23.314-22.227 7.893 0 14.91 3.989 18.878 10.154l0.107-0.043a50.554 50.554 0 0 1 0.512 1.066 433.612 433.612 0 0 1 43.706 190.228c0 10.324-0.362 20.542-1.066 30.674V827.102l92.66-79.905a22.27 22.27 0 0 1 31.229 2.197 21.864 21.864 0 0 1-2.155 30.993L1094.218 890.454a21.992 21.992 0 0 1-12.33 5.269 30.482 30.482 0 0 1-3.967 0.277c-12.2 0-22.14-9.855-22.14-21.992v-383.612a443.637 443.637 0 0 1-397.414 245.623c-244.152 0-442.806-197.053-442.806-439.243a434.188 434.188 0 0 1 50.746-203.965z m1060.096-70.2c-29.308 31.101-70.86 8.021-103.24-4.201-17.172-6.485-27.133-4.63-42.726 4.884-17.171 10.474-32.7 21.95-53.412 24.147-21.523 2.282-40.955-6.357-58.81-17.363-23.25-14.377-47.887-19.753-74.23-8.682-20.051 8.426-36.881 22.93-58.638 27.282-23.89 4.8-45.904-5.887-64.867-19.198-19.177-13.46-32.508-14.697-53.732-3.946-22.483 11.348-46.16 22.099-72.056 16.254-23.506-5.29-43.472-19.795-66.722-25.831-25.49-6.634-49.552 12.52-71.096 22.696-20.093 9.492-42.853 12.051-63.8 3.796-20.584-8.084-36.774-26.962-59.598-28.86-27.304-2.282-49.914 15.251-74.253 23.784-25.149 8.81-48.762 3.455-71.842-8.511-12.862-6.677-25.64-17.918-41.168-15.806-15.337 2.09-26.152 15.208-39.91 21.138-38.31 16.553-64.973-11.092-98.719-22.845-23.186-8.084-52.345 19.497-72.994 27.197-30.417 11.348-58.809 1.941-78.902-22.888-18.473-22.824 14.014-44.005 32.679-20.968 11.412 14.1 19.325 17.811 36.049 10.004 17.661-8.255 33.574-19.027 52.175-25.469 20.179-6.996 40.208-2.56 59.086 5.695 18.494 8.063 37.627 28.37 58.084 15.38 19.005-12.052 34.64-21.054 58.04-21.843 23.784-0.81 44.049 14.57 64.057 24.957 22.91 11.881 44.538-6.292 65.485-14.377 26.237-10.11 55.866-13.865 82.529-3.477 17.79 6.933 31.975 21.736 50.17 27.133 20.733 6.143 49.402-18.814 68.088-25.789 22.141-8.255 46.416-7.786 68.663-0.597 24.53 7.956 46.054 27.773 72.994 20.35 21.843-6.037 38.694-22.206 62.414-23.592 23.784-1.387 42.491 7.721 61.39 20.99 8.02 5.63 16.34 11.07 26.472 11.518 9.023 0.405 18.877-7.338 26.172-11.604 23.571-13.78 47.675-22.355 75.191-22.824 16.98-0.277 32.36 3.711 47.781 10.345 12.735 5.46 23.166 15.23 36.199 20.115 21.672 8.127 41.445-13.78 59.192-22.888 23.763-12.18 46.715-10.58 71.01-1.408 11.562 4.373 22.76 9.514 34.471 13.524 4.437 1.536 9.172 2.922 13.844 3.285 5.823 0.448 2.623 0.853 5.716-2.41 20.5-21.694 53.114-0.662 32.764 20.904zM1148.74-90.782c-14.441-5.354-22.824-3.818-35.943 4.032-14.44 8.639-27.516 18.131-44.944 19.944-18.11 1.877-34.449-5.247-49.466-14.355-19.56-11.86-40.294-16.34-62.456-7.167-16.894 6.975-31.015 18.941-49.36 22.546-20.093 3.968-38.63-4.863-54.564-15.87-16.126-11.113-27.346-12.116-45.22-3.264-18.9 9.386-38.844 18.26-60.623 13.418-19.795-4.395-36.582-16.34-56.143-21.353-21.458-5.503-41.701 10.346-59.811 18.729-16.915 7.828-36.07 9.94-53.69 3.135-17.299-6.697-30.95-22.29-50.148-23.847-22.973-1.877-42 12.585-62.478 19.624-21.16 7.274-41.019 2.858-60.451-7.04-10.836-5.524-21.566-14.781-34.642-13.054-12.905 1.707-22.013 12.543-33.574 17.449-32.23 13.673-54.67-9.151-83.062-18.878-19.518-6.676-44.048 16.105-61.433 22.483-25.575 9.364-49.487 1.6-66.381-18.9-15.55-18.856 11.796-38.181 27.495-19.154 9.6 11.646 16.254 14.718 30.333 8.255 14.867-6.826 28.263-15.721 43.898-21.032 16.958-5.76 33.83-2.09 49.722 4.692 15.572 6.656 31.655 23.422 48.87 12.714 15.997-9.962 29.158-17.385 48.847-18.046 20.008-0.683 37.072 12.03 53.881 20.605 19.283 9.812 37.5-5.204 55.119-11.86 22.077-8.361 46.991-11.433 69.453-2.88 14.974 5.717 26.92 17.982 42.213 22.42 17.449 5.076 41.574-15.55 57.295-21.31 18.622-6.826 39.078-6.442 57.785-0.49 20.648 6.57 38.758 22.951 61.432 16.808 18.388-4.992 32.551-18.323 52.517-19.496 20.03-1.131 35.771 6.377 51.663 17.341 6.762 4.672 13.758 9.151 22.29 9.514 7.594 0.341 15.87-6.037 22.014-9.578 19.837-11.39 40.123-18.472 63.288-18.856 14.292-0.235 27.24 3.072 40.209 8.532 10.73 4.501 19.517 12.586 30.481 16.617 18.217 6.72 34.876-11.37 49.808-18.899 19.987-10.068 39.291-8.746 59.747-1.152 9.727 3.605 19.155 7.85 29.01 11.177 3.733 1.259 7.7 2.41 11.647 2.71 4.884 0.362 2.218 0.725 4.82-1.984 17.172-17.854 44.603 1.322 27.496 19.155-24.744 25.725-59.705 6.676-86.944-3.435zM96.365 664.476c2.282 0.682 22.184 6.122 29.65-10.666a41.942 41.942 0 0 1 1.429-6.783 8.746 8.746 0 0 1 10.879-5.823 8.554 8.554 0 0 1 5.95 10.665c-5.439 18.28 14.207 26.216 16.49 27.07a8.554 8.554 0 0 1 5.162 11.027 8.852 8.852 0 0 1-11.263 5.077c-7.466-2.71-18.089-9.215-24.168-19.475-12.798 9.492-29.906 8.298-39.42 5.29a8.532 8.532 0 0 1-5.652-10.75 8.746 8.746 0 0 1 10.943-5.632z m130.715 88.97c3.008 0.918 29.244 8.17 39.078-14.227a57.4 57.4 0 0 1 1.877-9.044 11.519 11.519 0 0 1 14.334-7.786 11.433 11.433 0 0 1 7.829 14.228c-7.189 24.36 18.728 34.94 21.736 36.07a11.412 11.412 0 0 1 6.783 14.718 11.583 11.583 0 0 1-14.846 6.783c-9.855-3.605-23.848-12.286-31.847-25.96-16.894 12.671-39.42 11.05-51.983 7.061a11.412 11.412 0 0 1-7.466-14.355c1.962-5.973 8.426-9.343 14.505-7.488zM737.312 284.511a15.443 15.443 0 0 0-13.61 22.696c10.24 19.198 44.774 55.524 102.218 55.524 66.338 0 94.922-42.32 102.089-55.31a15.443 15.443 0 0 0-26.984-14.954c-5.119 9.258-25.64 39.398-75.105 39.398-44.368 0-69.176-28.284-74.978-39.184a15.422 15.422 0 0 0-13.63-8.17z m-141.551 0a15.358 15.358 0 0 0-13.61 8.17c-5.823 10.9-30.609 39.184-74.977 39.184-49.466 0-69.986-30.161-75.105-39.398a15.422 15.422 0 1 0-26.984 14.953c7.167 12.99 35.75 55.31 102.09 55.31 57.443 0 91.977-36.325 102.216-55.523a15.443 15.443 0 0 0-13.63-22.696z"  horiz-adv-x="1332" />

    
    <glyph glyph-name="jindutiao" unicode="&#58914;" d="M615.877 206.453l136.987 205.243-136.987 205.399h67.472l136.987-205.399-136.987-205.243h-67.472zM410.006 206.453l136.987 205.243-136.987 205.399h67.472l136.987-205.399-136.987-205.243h-67.472zM204.134 206.453l136.987 205.243-136.987 205.399h67.472l136.987-205.399-136.987-205.243h-67.472zM854.7-45.866H649.929v-44.406h205.399c75.475 0 136.828 61.354 136.828 136.828V251.955H947.75v-204.771c0-51.468-41.582-93.05-93.05-93.05zM76.72 47.186V251.957H32.314v-205.399c0-75.475 61.354-136.828 136.828-136.828h205.399v44.406H169.77c-51.312 0-93.05 41.582-93.05 93.05zM947.748 732.113v-204.771h44.406V732.741c0 75.475-61.354 136.828-136.828 136.828H649.927v-44.406h204.771c51.468 0 93.05-41.74 93.05-93.05zM169.772 825.162h204.771V869.568H169.144c-75.475 0-136.828-61.354-136.828-136.828v-205.399h44.406V732.112c0 51.312 41.74 93.05 93.05 93.05z"  horiz-adv-x="1024" />

    


  </font>
</defs>
</svg>
